{
  "accessors": [
    {
      "bufferView": 2,
      "componentType": 5126,
      "count": 7946,
      "max": [
        0.34757915139198303,
        0.4148683547973633,
        0.8536496162414551
      ],
      "min": [
        -0.34757915139198303,
        -0.29442721605300903,
        8.940696716308594e-08
      ],
      "type": "VEC3"
    },
    {
      "bufferView": 2,
      "byteOffset": 95352,
      "componentType": 5126,
      "count": 7946,
      "type": "VEC3"
    },
    {
      "bufferView": 3,
      "componentType": 5126,
      "count": 7946,
      "type": "VEC4"
    },
    {
      "bufferView": 1,
      "componentType": 5126,
      "count": 7946,
      "type": "VEC2"
    },
    {
      "bufferView": 1,
      "byteOffset": 63568,
      "componentType": 5126,
      "count": 7946,
      "type": "VEC2"
    },
    {
      "bufferView": 1,
      "byteOffset": 127136,
      "componentType": 5126,
      "count": 7946,
      "type": "VEC2"
    },
    {
      "bufferView": 0,
      "componentType": 5125,
      "count": 29658,
      "type": "SCALAR"
    },
    {
      "bufferView": 2,
      "byteOffset": 190704,
      "componentType": 5126,
      "count": 7946,
      "max": [
        0.34757915139198303,
        0.4148683249950409,
        0.8536496162414551
      ],
      "min": [
        -0.34757915139198303,
        -0.2944272458553314,
        8.940696716308594e-08
      ],
      "type": "VEC3"
    },
    {
      "bufferView": 2,
      "byteOffset": 286056,
      "componentType": 5126,
      "count": 7946,
      "type": "VEC3"
    },
    {
      "bufferView": 3,
      "byteOffset": 127136,
      "componentType": 5126,
      "count": 7946,
      "type": "VEC4"
    },
    {
      "bufferView": 1,
      "byteOffset": 190704,
      "componentType": 5126,
      "count": 7946,
      "type": "VEC2"
    },
    {
      "bufferView": 1,
      "byteOffset": 254272,
      "componentType": 5126,
      "count": 7946,
      "type": "VEC2"
    },
    {
      "bufferView": 1,
      "byteOffset": 317840,
      "componentType": 5126,
      "count": 7946,
      "type": "VEC2"
    },
    {
      "bufferView": 0,
      "byteOffset": 118632,
      "componentType": 5125,
      "count": 29658,
      "type": "SCALAR"
    }
  ],
  "asset": {
    "generator": "fab-model-conversion",
    "version": "2.0"
  },
  "bufferViews": [
    {
      "buffer": 0,
      "byteLength": 237264,
      "target": 34963
    },
    {
      "buffer": 0,
      "byteLength": 381408,
      "byteOffset": 237264,
      "byteStride": 8,
      "target": 34962
    },
    {
      "buffer": 0,
      "byteLength": 381408,
      "byteOffset": 618672,
      "byteStride": 12,
      "target": 34962
    },
    {
      "buffer": 0,
      "byteLength": 254272,
      "byteOffset": 1000080,
      "byteStride": 16,
      "target": 34962
    }
  ],
  "buffers": [
    {
      "byteLength": 1254352,
      "uri": "scene.bin"
    }
  ],
  "images": [
    {
      "uri": "textures/Chair_Green_baseColor.png"
    },
    {
      "uri": "textures/Chair_Green_metallicRoughness.png"
    },
    {
      "uri": "textures/Chair_Green_normal.png"
    },
    {
      "uri": "textures/Chair_Red_baseColor.png"
    }
  ],
  "materials": [
    {
      "doubleSided": true,
      "name": "Chair_Green",
      "normalTexture": {
        "index": 2
      },
      "pbrMetallicRoughness": {
        "baseColorTexture": {
          "index": 0
        },
        "metallicRoughnessTexture": {
          "index": 1
        }
      }
    },
    {
      "doubleSided": true,
      "name": "Chair_Red",
      "normalTexture": {
        "index": 2
      },
      "pbrMetallicRoughness": {
        "baseColorTexture": {
          "index": 3
        },
        "metallicRoughnessTexture": {
          "index": 1
        }
      }
    }
  ],
  "meshes": [
    {
      "name": "Victorian Chair Green_Chair Green_0",
      "primitives": [
        {
          "attributes": {
            "NORMAL": 1,
            "POSITION": 0,
            "TANGENT": 2,
            "TEXCOORD_0": 3,
            "TEXCOORD_1": 4,
            "TEXCOORD_2": 5
          },
          "indices": 6,
          "material": 0,
          "mode": 4
        }
      ]
    },
    {
      "name": "Victorian Chair Red_Chair Red_0",
      "primitives": [
        {
          "attributes": {
            "NORMAL": 8,
            "POSITION": 7,
            "TANGENT": 9,
            "TEXCOORD_0": 10,
            "TEXCOORD_1": 11,
            "TEXCOORD_2": 12
          },
          "indices": 13,
          "material": 1,
          "mode": 4
        }
      ]
    }
  ],
  "nodes": [
    {
      "children": [
        1
      ],
      "matrix": [
        1.0,
        0.0,
        0.0,
        0.0,
        0.0,
        2.220446049250313e-16,
        -1.0,
        0.0,
        0.0,
        1.0,
        2.220446049250313e-16,
        0.0,
        0.0,
        0.0,
        0.0,
        1.0
      ],
      "name": "Sketchfab_model"
    },
    {
      "children": [
        2
      ],
      "matrix": [
        0.009999999776482582,
        0.0,
        0.0,
        0.0,
        0.0,
        0.0,
        0.009999999776482582,
        0.0,
        0.0,
        -0.009999999776482582,
        0.0,
        0.0,
        0.0,
        0.0,
        0.0,
        1.0
      ],
      "name": "fe1528818595483590ac6c070e63b37b.fbx"
    },
    {
      "children": [
        3,
        5
      ],
      "name": "RootNode"
    },
    {
      "children": [
        4
      ],
      "matrix": [
        87.84330975852288,
        -2.7755575615628914e-15,
        -47.78653503517699,
        0.0,
        -47.786535035176946,
        -4.371139006309477e-06,
        -87.84330975852282,
        0.0,
        -2.0888158674958746e-06,
        99.99999999999991,
        -3.839753182077743e-06,
        0.0,
        -37.607418060302734,
        0.0001416248851455748,
        25.800350189208984,
        1.0
      ],
      "name": "Victorian Chair Green"
    },
    {
      "mesh": 0,
      "name": "Victorian Chair Green_Chair Green_0"
    },
    {
      "children": [
        6
      ],
      "matrix": [
        65.55789270031586,
        0.0,
        75.51266585609247,
        0.0,
        75.51266585609224,
        7.549789959870878e-06,
        -65.55789270031566,
        0.0,
        -5.701047667283632e-06,
        99.99999999999972,
        4.9494832010665846e-06,
        0.0,
        37.607391357421875,
        0.0001416248851455748,
        -25.800355911254883,
        1.0
      ],
      "name": "Victorian Chair Red"
    },
    {
      "mesh": 1,
      "name": "Victorian Chair Red_Chair Red_0"
    }
  ],
  "samplers": [
    {
      "magFilter": 9729,
      "minFilter": 9987,
      "wrapS": 10497,
      "wrapT": 10497
    }
  ],
  "scene": 0,
  "scenes": [
    {
      "name": "Sketchfab_Scene",
      "nodes": [
        0
      ]
    }
  ],
  "textures": [
    {
      "sampler": 0,
      "source": 0
    },
    {
      "sampler": 0,
      "source": 1
    },
    {
      "sampler": 0,
      "source": 2
    },
    {
      "sampler": 0,
      "source": 3
    }
  ]
}
