{
  "accessors": [
    {
      "bufferView": 2,
      "componentType": 5126,
      "count": 172,
      "max": [
        0.23756784200668335,
        2.0613527297973633,
        1.008758306503296
      ],
      "min": [
        -0.251484215259552,
        0.03658042103052139,
        -1.6624311208724976
      ],
      "type": "VEC3"
    },
    {
      "bufferView": 2,
      "byteOffset": 2064,
      "componentType": 5126,
      "count": 172,
      "type": "VEC3"
    },
    {
      "bufferView": 1,
      "componentType": 5126,
      "count": 172,
      "type": "VEC2"
    },
    {
      "bufferView": 0,
      "componentType": 5125,
      "count": 264,
      "type": "SCALAR"
    },
    {
      "bufferView": 2,
      "byteOffset": 4128,
      "componentType": 5126,
      "count": 388,
      "max": [
        0.23756784200668335,
        2.048966646194458,
        1.0
      ],
      "min": [
        0.18284223973751068,
        0.0489666573703289,
        -1.6536725759506226
      ],
      "type": "VEC3"
    },
    {
      "bufferView": 2,
      "byteOffset": 8784,
      "componentType": 5126,
      "count": 388,
      "type": "VEC3"
    },
    {
      "bufferView": 1,
      "byteOffset": 1376,
      "componentType": 5126,
      "count": 388,
      "type": "VEC2"
    },
    {
      "bufferView": 0,
      "byteOffset": 1056,
      "componentType": 5125,
      "count": 624,
      "type": "SCALAR"
    },
    {
      "bufferView": 2,
      "byteOffset": 13440,
      "componentType": 5126,
      "count": 4184,
      "max": [
        0.17558205127716064,
        0.018940262496471405,
        0.9716104865074158
      ],
      "min": [
        -0.2035692036151886,
        0.00016570836305618286,
        -1.5671404600143433
      ],
      "type": "VEC3"
    },
    {
      "bufferView": 2,
      "byteOffset": 63648,
      "componentType": 5126,
      "count": 4184,
      "type": "VEC3"
    },
    {
      "bufferView": 1,
      "byteOffset": 4480,
      "componentType": 5126,
      "count": 4184,
      "type": "VEC2"
    },
    {
      "bufferView": 0,
      "byteOffset": 3552,
      "componentType": 5125,
      "count": 23616,
      "type": "SCALAR"
    },
    {
      "bufferView": 2,
      "byteOffset": 113856,
      "componentType": 5126,
      "count": 1636,
      "max": [
        0.2780193090438843,
        1.7805440425872803,
        0.5764144659042358
      ],
      "min": [
        0.2358185201883316,
        0.24090968072414398,
        -1.0686362981796265
      ],
      "type": "VEC3"
    },
    {
      "bufferView": 2,
      "byteOffset": 133488,
      "componentType": 5126,
      "count": 1636,
      "type": "VEC3"
    },
    {
      "bufferView": 1,
      "byteOffset": 37952,
      "componentType": 5126,
      "count": 1636,
      "type": "VEC2"
    },
    {
      "bufferView": 0,
      "byteOffset": 98016,
      "componentType": 5125,
      "count": 7584,
      "type": "SCALAR"
    },
    {
      "bufferView": 2,
      "byteOffset": 153120,
      "componentType": 5126,
      "count": 68,
      "max": [
        0.2542189955711365,
        0.8470138907432556,
        5.960464477539063e-08
      ],
      "min": [
        -0.25148412585258484,
        0.8326151967048645,
        -1.6889690160751343
      ],
      "type": "VEC3"
    },
    {
      "bufferView": 2,
      "byteOffset": 153936,
      "componentType": 5126,
      "count": 68,
      "type": "VEC3"
    },
    {
      "bufferView": 1,
      "byteOffset": 51040,
      "componentType": 5126,
      "count": 68,
      "type": "VEC2"
    },
    {
      "bufferView": 1,
      "byteOffset": 51584,
      "componentType": 5126,
      "count": 68,
      "type": "VEC2"
    },
    {
      "bufferView": 1,
      "byteOffset": 52128,
      "componentType": 5126,
      "count": 68,
      "type": "VEC2"
    },
    {
      "bufferView": 0,
      "byteOffset": 128352,
      "componentType": 5125,
      "count": 324,
      "type": "SCALAR"
    },
    {
      "bufferView": 2,
      "byteOffset": 154752,
      "componentType": 5126,
      "count": 2200,
      "max": [
        0.17130811512470245,
        0.14792239665985107,
        0.9673365354537964
      ],
      "min": [
        -0.1992952823638916,
        0.01894024759531021,
        -1.5628665685653687
      ],
      "type": "VEC3"
    },
    {
      "bufferView": 2,
      "byteOffset": 181152,
      "componentType": 5126,
      "count": 2200,
      "type": "VEC3"
    },
    {
      "bufferView": 1,
      "byteOffset": 52672,
      "componentType": 5126,
      "count": 2200,
      "type": "VEC2"
    },
    {
      "bufferView": 0,
      "byteOffset": 129648,
      "componentType": 5125,
      "count": 11520,
      "type": "SCALAR"
    }
  ],
  "asset": {
    "generator": "fab-model-conversion",
    "version": "2.0"
  },
  "bufferViews": [
    {
      "buffer": 0,
      "byteLength": 175728,
      "target": 34963
    },
    {
      "buffer": 0,
      "byteLength": 70272,
      "byteOffset": 175728,
      "byteStride": 8,
      "target": 34962
    },
    {
      "buffer": 0,
      "byteLength": 207552,
      "byteOffset": 246000,
      "byteStride": 12,
      "target": 34962
    }
  ],
  "buffers": [
    {
      "byteLength": 453552,
      "uri": "scene.bin"
    }
  ],
  "extensionsUsed": [
    "KHR_materials_clearcoat"
  ],
  "images": [
    {
      "uri": "textures/MARBLE_baseColor.jpeg"
    },
    {
      "uri": "textures/MARBLE_metallicRoughness.png"
    }
  ],
  "materials": [
    {
      "doubleSided": true,
      "extensions": {
        "KHR_materials_clearcoat": {
          "clearcoatFactor": 1,
          "clearcoatRoughnessFactor": 0.10209554924357864
        }
      },
      "name": "WHITE_BOARD",
      "pbrMetallicRoughness": {
        "baseColorFactor": [
          0.011750637479589597,
          0.011750637479589597,
          0.011750637479589597,
          1.0
        ],
        "metallicFactor": 0.6628591629993539,
        "roughnessFactor": 0.32152478940888196
      }
    },
    {
      "doubleSided": true,
      "name": "CHROME_POLISHED",
      "pbrMetallicRoughness": {
        "baseColorFactor": [
          0.5190816593712904,
          0.5190816593712904,
          0.5190816593712904,
          1.0
        ],
        "roughnessFactor": 0.24838170935378087
      }
    },
    {
      "doubleSided": true,
      "name": "MARBLE",
      "pbrMetallicRoughness": {
        "baseColorTexture": {
          "index": 0
        },
        "metallicFactor": 0.0,
        "metallicRoughnessTexture": {
          "index": 1
        },
        "roughnessFactor": 0.5958113396155111
      }
    },
    {
      "doubleSided": true,
      "name": "METAL_BLACK",
      "pbrMetallicRoughness": {
        "baseColorFactor": [
          0.0242034,
          0.0242034,
          0.0242034,
          1.0
        ],
        "roughnessFactor": 0.5043824895466348
      }
    }
  ],
  "meshes": [
    {
      "name": "Object_0",
      "primitives": [
        {
          "attributes": {
            "NORMAL": 1,
            "POSITION": 0,
            "TEXCOORD_0": 2
          },
          "indices": 3,
          "material": 0,
          "mode": 4
        }
      ]
    },
    {
      "name": "Object_1",
      "primitives": [
        {
          "attributes": {
            "NORMAL": 5,
            "POSITION": 4,
            "TEXCOORD_0": 6
          },
          "indices": 7,
          "material": 0,
          "mode": 4
        }
      ]
    },
    {
      "name": "Object_2",
      "primitives": [
        {
          "attributes": {
            "NORMAL": 9,
            "POSITION": 8,
            "TEXCOORD_0": 10
          },
          "indices": 11,
          "material": 1,
          "mode": 4
        }
      ]
    },
    {
      "name": "Object_3",
      "primitives": [
        {
          "attributes": {
            "NORMAL": 13,
            "POSITION": 12,
            "TEXCOORD_0": 14
          },
          "indices": 15,
          "material": 1,
          "mode": 4
        }
      ]
    },
    {
      "name": "Object_4",
      "primitives": [
        {
          "attributes": {
            "NORMAL": 17,
            "POSITION": 16,
            "TEXCOORD_0": 18,
            "TEXCOORD_1": 19,
            "TEXCOORD_2": 20
          },
          "indices": 21,
          "material": 2,
          "mode": 4
        }
      ]
    },
    {
      "name": "Object_5",
      "primitives": [
        {
          "attributes": {
            "NORMAL": 23,
            "POSITION": 22,
            "TEXCOORD_0": 24
          },
          "indices": 25,
          "material": 3,
          "mode": 4
        }
      ]
    }
  ],
  "nodes": [
    {
      "children": [
        1
      ],
      "matrix": [
        1.0,
        0.0,
        0.0,
        0.0,
        0.0,
        2.220446049250313e-16,
        -1.0,
        0.0,
        0.0,
        1.0,
        2.220446049250313e-16,
        0.0,
        0.0,
        0.0,
        0.0,
        1.0
      ],
      "name": "Sketchfab_model"
    },
    {
      "children": [
        2
      ],
      "name": "root"
    },
    {
      "children": [
        3
      ],
      "matrix": [
        1.0,
        0.0,
        0.0,
        0.0,
        0.0,
        2.220446049250313e-16,
        1.0,
        0.0,
        0.0,
        -1.0,
        2.220446049250313e-16,
        0.0,
        0.0,
        0.0,
        0.0,
        1.0
      ],
      "name": "GLTF_SceneRootNode"
    },
    {
      "children": [
        4,
        6,
        8,
        10,
        12,
        14
      ],
      "name": "CABINET_6"
    },
    {
      "children": [
        5
      ],
      "name": "CABINET.001_0"
    },
    {
      "mesh": 0,
      "name": "Object_5"
    },
    {
      "children": [
        7
      ],
      "name": "CABINET.002_1"
    },
    {
      "mesh": 1,
      "name": "Object_7"
    },
    {
      "children": [
        9
      ],
      "name": "CABINET.003_2"
    },
    {
      "mesh": 2,
      "name": "Object_9"
    },
    {
      "children": [
        11
      ],
      "name": "CABINET.004_3"
    },
    {
      "mesh": 3,
      "name": "Object_11"
    },
    {
      "children": [
        13
      ],
      "name": "CABINET.005_4"
    },
    {
      "mesh": 4,
      "name": "Object_13"
    },
    {
      "children": [
        15
      ],
      "name": "CABINET.006_5"
    },
    {
      "mesh": 5,
      "name": "Object_15"
    }
  ],
  "samplers": [
    {
      "magFilter": 9729,
      "minFilter": 9987,
      "wrapS": 10497,
      "wrapT": 10497
    }
  ],
  "scene": 0,
  "scenes": [
    {
      "name": "Sketchfab_Scene",
      "nodes": [
        0
      ]
    }
  ],
  "textures": [
    {
      "sampler": 0,
      "source": 0
    },
    {
      "sampler": 0,
      "source": 1
    }
  ]
}
